<?xml version="1.0" encoding="windows-1252" standalone="no"?>
<!-- Created with Inkscape (http://www.inkscape.org/) -->
<svg xmlns:dc="http://purl.org/dc/elements/1.1/" xmlns:cc="http://creativecommons.org/ns#" xmlns:rdf="http://www.w3.org/1999/02/22-rdf-syntax-ns#" xmlns:svg="http://www.w3.org/2000/svg" xmlns="http://www.w3.org/2000/svg" xmlns:sodipodi="http://sodipodi.sourceforge.net/DTD/sodipodi-0.dtd" xmlns:inkscape="http://www.inkscape.org/namespaces/inkscape" version="1.1" id="svg36" width="200.16" height="200.16" viewBox="0 0 200.16 200.16" sodipodi:docname="endeminis-icon.svg" inkscape:version="0.92.4 (5da689c313, 2019-01-14)">
  <metadata id="metadata42">
    <rdf:RDF>
      <cc:Work rdf:about="">
        <dc:format>image/svg+xml</dc:format>
        <dc:type rdf:resource="http://purl.org/dc/dcmitype/StillImage"/>
        <dc:title/>
      </cc:Work>
    </rdf:RDF>
  </metadata>
  <defs id="defs40"/>
  <sodipodi:namedview pagecolor="#ffffff" bordercolor="#666666" borderopacity="1" objecttolerance="10" gridtolerance="10" guidetolerance="10" inkscape:pageopacity="0" inkscape:pageshadow="2" inkscape:window-width="1920" inkscape:window-height="1017" id="namedview38" showgrid="false" inkscape:zoom="0.833719" inkscape:cx="182.71575" inkscape:cy="153.90926" inkscape:window-x="-8" inkscape:window-y="-8" inkscape:window-maximized="1" inkscape:current-layer="svg36" inkscape:snap-global="true" inkscape:snap-bbox="true" inkscape:bbox-paths="true" inkscape:bbox-nodes="true" inkscape:snap-bbox-edge-midpoints="true" inkscape:snap-bbox-midpoints="true"/>
  <path style="color:#000000;font-style:normal;font-variant:normal;font-weight:normal;font-stretch:normal;font-size:medium;line-height:normal;font-family:sans-serif;font-variant-ligatures:normal;font-variant-position:normal;font-variant-caps:normal;font-variant-numeric:normal;font-variant-alternates:normal;font-feature-settings:normal;text-indent:0;text-align:start;text-decoration:none;text-decoration-line:none;text-decoration-style:solid;text-decoration-color:#000000;letter-spacing:normal;word-spacing:normal;text-transform:none;writing-mode:lr-tb;direction:ltr;text-orientation:mixed;dominant-baseline:auto;baseline-shift:baseline;text-anchor:start;white-space:normal;shape-padding:0;clip-rule:nonzero;display:inline;overflow:visible;visibility:visible;opacity:1;isolation:auto;mix-blend-mode:normal;color-interpolation:sRGB;color-interpolation-filters:linearRGB;solid-color:#000000;solid-opacity:1;vector-effect:none;fill:#000000;fill-opacity:1;fill-rule:nonzero;stroke:none;stroke-width:7.55905533;stroke-linecap:butt;stroke-linejoin:miter;stroke-miterlimit:4;stroke-dasharray:none;stroke-dashoffset:0;stroke-opacity:1;paint-order:normal;color-rendering:auto;image-rendering:auto;shape-rendering:auto;text-rendering:auto;enable-background:accumulate" d="m 155.32812,22.057373 -9.38476,6.800781 -45.43164,32.921875 4.21875,26.80664 18.80859,-23.269531 -10.75586,27.916016 22.26563,-8.56836 z m -110.496089,0.002 3.570313,11.023437 16.705078,51.581984 22.267578,8.56836 -10.757812,-27.917969 18.810546,23.271484 4.21875,-26.80664 z m 14.332031,19.71875 3.722657,2.699218 -1.960938,1.132813 13.273438,34.455031 -3.011719,-1.160156 z m 81.830078,0.002 -12.02539,37.125 -3.01172,1.160156 13.27735,-34.455078 -1.9629,-1.132813 z m -62.156249,14.255859 12.621093,9.146485 -0.851562,5.414062 z m 42.484379,0 -11.77149,14.560547 -0.85156,-5.414062 z m -55.929692,31.248047 -2.34375,1.707031 -14.294922,10.402344 2.589844,6.253906 -9.195312,-1.44531 -1.263672,0.91992 -30.199219,21.98242 51.513672,0.0547 20.529297,-16.57813 -29.566407,-4.64843 29.564453,-4.64649 z m 69.373042,0.002 -2.25585,1.822266 -15.07813,12.177735 29.56055,4.64649 -29.56055,4.64843 20.52539,16.57813 51.51758,-0.0547 -31.4668,-22.90234 -1.54492,0.24219 -7.64844,1.20312 2.58789,-6.253909 z m -90.699214,24.867191 20.660156,3.25 -5.193359,4.19336 -25.652344,-0.0273 z m 112.023434,0.002 10.1875,7.41407 -25.65234,0.0273 -5.19336,-4.19336 z m -60.662106,11.125 -5.349609,6.61914 -7.3125,9.04688 17.314455,53.08008 17.3125,-53.08008 -12.66211,-15.66602 -4.65235,29.5625 z" id="path834" inkscape:connector-curvature="0"/>
  <path inkscape:connector-curvature="0" style="opacity:1;fill:#ffffff;fill-opacity:1;fill-rule:nonzero;stroke:#000000;stroke-width:2.64566922;stroke-linecap:butt;stroke-linejoin:miter;stroke-miterlimit:4;stroke-dasharray:none;stroke-dashoffset:0;stroke-opacity:1;paint-order:normal" d="m 51.998276,31.919195 16.149615,49.8652 12.638981,4.864132 -16.334285,-42.396403 28.56515,35.339258 2.535553,-16.109784 z m 96.162684,0 -43.55502,31.562403 2.53555,16.109784 28.56515,-35.339258 -16.33614,42.396403 12.63899,-4.864132 z M 65.272535,92.046145 50.978879,102.45004 73.726848,98.87439 Z m 69.612315,0.0019 -8.45247,6.826398 22.74612,3.575647 z m -91.776716,16.130095 -20.825521,15.15911 38.583632,0.0406 12.860603,-10.38543 z m 113.941116,0 -30.61687,4.8143 12.85875,10.38542 38.58548,-0.0406 z m -64.031513,24.0973 -6.022171,7.45033 13.084044,40.11295 13.08405,-40.11295 -6.02217,-7.45033 -7.06188,44.88292 z" id="path824"/>
  <path style="opacity:1;fill:#ffffff;fill-opacity:1;fill-rule:nonzero;stroke:#000000;stroke-width:2.64566922;stroke-linecap:butt;stroke-linejoin:miter;stroke-miterlimit:4;stroke-dasharray:none;stroke-dashoffset:0;stroke-opacity:1;paint-order:normal" d="m 110.03296,116.21333 -7.25838,-5.28346 0.9483,8.9251 -3.64313,-8.20332 -0.912083,-2.04599 -1.782756,1.32421 -7.258376,5.28346 5.285617,-7.25541 -8.928747,0.94791 8.20667,-3.64164 -8.20667,-3.64165 8.928747,0.94791 -5.285617,-7.255418 7.258376,5.283458 -0.948294,-8.925098 3.643133,8.203318 0.89289,2.00765 1.80194,-1.28587 7.25838,-5.283458 -5.28562,7.255418 8.92875,-0.94791 -8.20667,3.64165 8.20667,3.64164 -8.92875,-0.94791 z" id="path831" inkscape:connector-curvature="0" sodipodi:nodetypes="ccccccccccccccccccccccccc"/>
  <path sodipodi:type="star" style="opacity:1;fill:#ffffff;fill-opacity:1;fill-rule:nonzero;stroke:#000000;stroke-width:7.55905533;stroke-linecap:butt;stroke-linejoin:miter;stroke-miterlimit:4;stroke-dasharray:none;stroke-dashoffset:0;stroke-opacity:1;paint-order:normal" id="path846" sodipodi:sides="12" sodipodi:cx="100.08108" sodipodi:cy="38.927545" sodipodi:r1="9.6321402" sodipodi:r2="3.6881368" sodipodi:arg1="1.0471976" sodipodi:arg2="1.3089969" inkscape:flatsided="false" inkscape:rounded="-3.46945e-18" inkscape:randomized="0" d="m 104.89715,47.269222 -3.86151,-4.779212 -0.95456,6.069674 -0.954562,-6.069674 -3.861511,4.779211 2.208164,-5.733771 -5.733772,2.208163 4.779212,-3.861509 -6.069674,-0.954561 6.069674,-0.954559 -4.779211,-3.861511 5.733771,2.208164 -2.208163,-5.733772 3.861509,4.779212 0.954563,-6.069674 0.95456,6.069674 3.86151,-4.779211 -2.20817,5.733771 5.73378,-2.208163 -4.77922,3.861509 6.06968,0.954561 -6.06968,0.95456 4.77922,3.86151 -5.73378,-2.208164 z"/>
  <path d="m 103.78397,45.341141 -2.96897,-3.674553 -0.73392,4.66674 -0.733927,-4.66674 -2.968968,3.674553 1.697773,-4.408478 -4.408478,1.697773 3.674553,-2.968968 -4.66674,-0.733925 4.66674,-0.733924 -3.674553,-2.968968 4.408478,1.697773 -1.697772,-4.408478 2.968967,3.674553 0.733927,-4.66674 0.73392,4.66674 2.96897,-3.674553 -1.69777,4.408478 4.40848,-1.697772 -3.67456,2.968967 4.66674,0.733925 -4.66674,0.733924 3.67455,2.968968 -4.40847,-1.697773 z" inkscape:randomized="0" inkscape:rounded="-3.46945e-18" inkscape:flatsided="false" sodipodi:arg2="1.3089969" sodipodi:arg1="1.0471976" sodipodi:r2="2.8356674" sodipodi:r1="7.4057846" sodipodi:cy="38.927545" sodipodi:cx="100.08108" sodipodi:sides="12" id="path848" style="opacity:1;fill:#ffffff;fill-opacity:1;fill-rule:nonzero;stroke:none;stroke-width:7.55905533;stroke-linecap:butt;stroke-linejoin:miter;stroke-miterlimit:4;stroke-dasharray:none;stroke-dashoffset:0;stroke-opacity:1;paint-order:normal" sodipodi:type="star"/>
  <path d="m 104.89715,46.891536 -3.86151,-4.779211 -0.95456,6.069673 -0.954562,-6.069673 -3.861511,4.779211 2.208164,-5.733771 -5.733772,2.208163 4.779212,-3.86151 -6.069674,-0.95456 6.069674,-0.95456 -4.779211,-3.86151 5.733771,2.208164 -2.208163,-5.733772 3.861509,4.779212 0.954563,-6.069674 0.95456,6.069673 3.86151,-4.779211 -2.20817,5.733771 5.73378,-2.208163 -4.77922,3.86151 6.06968,0.954561 -6.06968,0.954559 4.77922,3.861511 -5.73378,-2.208164 z" inkscape:randomized="0" inkscape:rounded="-3.46945e-18" inkscape:flatsided="false" sodipodi:arg2="1.3089969" sodipodi:arg1="1.0471976" sodipodi:r2="3.6881368" sodipodi:r1="9.6321402" sodipodi:cy="38.549858" sodipodi:cx="100.08108" sodipodi:sides="12" id="path854" style="opacity:1;fill:#ffffff;fill-opacity:1;fill-rule:nonzero;stroke:#000000;stroke-width:7.55905533;stroke-linecap:butt;stroke-linejoin:miter;stroke-miterlimit:4;stroke-dasharray:none;stroke-dashoffset:0;stroke-opacity:1;paint-order:normal" sodipodi:type="star" transform="rotate(72,99.84905,97.891329)"/>
  <path sodipodi:type="star" style="opacity:1;fill:#ffffff;fill-opacity:1;fill-rule:nonzero;stroke:none;stroke-width:7.55905533;stroke-linecap:butt;stroke-linejoin:miter;stroke-miterlimit:4;stroke-dasharray:none;stroke-dashoffset:0;stroke-opacity:1;paint-order:normal" id="path856" sodipodi:sides="12" sodipodi:cx="100.08108" sodipodi:cy="38.549858" sodipodi:r1="7.4057846" sodipodi:r2="2.8356674" sodipodi:arg1="1.0471976" sodipodi:arg2="1.3089969" inkscape:flatsided="false" inkscape:rounded="-3.46945e-18" inkscape:randomized="0" d="m 103.78397,44.963456 -2.96897,-3.674554 -0.73392,4.666741 -0.733927,-4.666741 -2.968968,3.674554 1.697773,-4.408478 -4.408478,1.697772 3.674553,-2.968967 -4.66674,-0.733925 4.66674,-0.733925 -3.674553,-2.968968 4.408478,1.697774 -1.697772,-4.408479 2.968967,3.674554 0.733927,-4.666741 0.73392,4.666741 2.96897,-3.674553 -1.69777,4.408477 4.40848,-1.697772 -3.67456,2.968967 4.66674,0.733925 -4.66674,0.733925 3.67455,2.968968 -4.40847,-1.697773 z" transform="rotate(72,99.84905,97.891329)"/>
  <path transform="rotate(144,100.02961,97.877408)" d="m 103.78397,44.963456 -2.96897,-3.674554 -0.73392,4.666741 -0.733927,-4.666741 -2.968968,3.674554 1.697773,-4.408478 -4.408478,1.697772 3.674553,-2.968967 -4.66674,-0.733925 4.66674,-0.733925 -3.674553,-2.968968 4.408478,1.697774 -1.697772,-4.408479 2.968967,3.674554 0.733927,-4.666741 0.73392,4.666741 2.96897,-3.674553 -1.69777,4.408477 4.40848,-1.697772 -3.67456,2.968967 4.66674,0.733925 -4.66674,0.733925 3.67455,2.968968 -4.40847,-1.697773 z" inkscape:randomized="0" inkscape:rounded="-3.46945e-18" inkscape:flatsided="false" sodipodi:arg2="1.3089969" sodipodi:arg1="1.0471976" sodipodi:r2="2.8356674" sodipodi:r1="7.4057846" sodipodi:cy="38.549858" sodipodi:cx="100.08108" sodipodi:sides="12" id="path864" style="opacity:1;fill:#000000;fill-opacity:1;fill-rule:nonzero;stroke:none;stroke-width:7.55905533;stroke-linecap:butt;stroke-linejoin:miter;stroke-miterlimit:4;stroke-dasharray:none;stroke-dashoffset:0;stroke-opacity:1;paint-order:normal" sodipodi:type="star"/>
  <path sodipodi:type="star" style="opacity:1;fill:#000000;fill-opacity:1;fill-rule:nonzero;stroke:none;stroke-width:7.55905533;stroke-linecap:butt;stroke-linejoin:miter;stroke-miterlimit:4;stroke-dasharray:none;stroke-dashoffset:0;stroke-opacity:1;paint-order:normal" id="path872" sodipodi:sides="12" sodipodi:cx="100.08108" sodipodi:cy="38.549858" sodipodi:r1="7.4057846" sodipodi:r2="2.8356674" sodipodi:arg1="1.0471976" sodipodi:arg2="1.3089969" inkscape:flatsided="false" inkscape:rounded="-3.46945e-18" inkscape:randomized="0" d="m 103.78397,44.963456 -2.96897,-3.674554 -0.73392,4.666741 -0.733927,-4.666741 -2.968968,3.674554 1.697773,-4.408478 -4.408478,1.697772 3.674553,-2.968967 -4.66674,-0.733925 4.66674,-0.733925 -3.674553,-2.968968 4.408478,1.697774 -1.697772,-4.408479 2.968967,3.674554 0.733927,-4.666741 0.73392,4.666741 2.96897,-3.674553 -1.69777,4.408477 4.40848,-1.697772 -3.67456,2.968967 4.66674,0.733925 -4.66674,0.733925 3.67455,2.968968 -4.40847,-1.697773 z" transform="rotate(-144,100.1341,97.890622)"/>
  <path transform="rotate(-72,100.59414,97.907984)" sodipodi:type="star" style="opacity:1;fill:#ffffff;fill-opacity:1;fill-rule:nonzero;stroke:#000000;stroke-width:7.55905533;stroke-linecap:butt;stroke-linejoin:miter;stroke-miterlimit:4;stroke-dasharray:none;stroke-dashoffset:0;stroke-opacity:1;paint-order:normal" id="path878" sodipodi:sides="12" sodipodi:cx="100.08108" sodipodi:cy="38.549858" sodipodi:r1="9.6321402" sodipodi:r2="3.6881368" sodipodi:arg1="1.0471976" sodipodi:arg2="1.3089969" inkscape:flatsided="false" inkscape:rounded="-3.46945e-18" inkscape:randomized="0" d="m 104.89715,46.891536 -3.86151,-4.779211 -0.95456,6.069673 -0.954562,-6.069673 -3.861511,4.779211 2.208164,-5.733771 -5.733772,2.208163 4.779212,-3.86151 -6.069674,-0.95456 6.069674,-0.95456 -4.779211,-3.86151 5.733771,2.208164 -2.208163,-5.733772 3.861509,4.779212 0.954563,-6.069674 0.95456,6.069673 3.86151,-4.779211 -2.20817,5.733771 5.73378,-2.208163 -4.77922,3.86151 6.06968,0.954561 -6.06968,0.954559 4.77922,3.861511 -5.73378,-2.208164 z"/>
  <path transform="rotate(-72,100.59414,97.907984)" d="m 103.78397,44.963456 -2.96897,-3.674554 -0.73392,4.666741 -0.733927,-4.666741 -2.968968,3.674554 1.697773,-4.408478 -4.408478,1.697772 3.674553,-2.968967 -4.66674,-0.733925 4.66674,-0.733925 -3.674553,-2.968968 4.408478,1.697774 -1.697772,-4.408479 2.968967,3.674554 0.733927,-4.666741 0.73392,4.666741 2.96897,-3.674553 -1.69777,4.408477 4.40848,-1.697772 -3.67456,2.968967 4.66674,0.733925 -4.66674,0.733925 3.67455,2.968968 -4.40847,-1.697773 z" inkscape:randomized="0" inkscape:rounded="-3.46945e-18" inkscape:flatsided="false" sodipodi:arg2="1.3089969" sodipodi:arg1="1.0471976" sodipodi:r2="2.8356674" sodipodi:r1="7.4057846" sodipodi:cy="38.549858" sodipodi:cx="100.08108" sodipodi:sides="12" id="path880" style="opacity:1;fill:#ffffff;fill-opacity:1;fill-rule:nonzero;stroke:none;stroke-width:7.55905533;stroke-linecap:butt;stroke-linejoin:miter;stroke-miterlimit:4;stroke-dasharray:none;stroke-dashoffset:0;stroke-opacity:1;paint-order:normal" sodipodi:type="star"/>
</svg>