<?xml version="1.0" encoding="windows-1252" standalone="no"?>
<!-- Created with Inkscape (http://www.inkscape.org/) -->
<svg xmlns:dc="http://purl.org/dc/elements/1.1/" xmlns:cc="http://creativecommons.org/ns#" xmlns:rdf="http://www.w3.org/1999/02/22-rdf-syntax-ns#" xmlns:svg="http://www.w3.org/2000/svg" xmlns="http://www.w3.org/2000/svg" xmlns:sodipodi="http://sodipodi.sourceforge.net/DTD/sodipodi-0.dtd" xmlns:inkscape="http://www.inkscape.org/namespaces/inkscape" x="0px" y="0px" viewBox="0 0 200 200" version="1.1" id="svg5" inkscape:version="0.92.4 (5da689c313, 2019-01-14)" sodipodi:docname="flor-galana-icon.svg" width="200" height="200">
  <title id="title3433">Flor'Galana Esoteric Containment Class</title>
  <sodipodi:namedview id="namedview7" pagecolor="#ffffff" bordercolor="#666666" borderopacity="1.0" inkscape:pageshadow="2" inkscape:pageopacity="0.0" inkscape:pagecheckerboard="0" inkscape:document-units="mm" showgrid="false" width="200px" units="mm" inkscape:snap-center="true" fit-margin-top="100" fit-margin-left="100" fit-margin-right="100" fit-margin-bottom="100" inkscape:object-paths="false" inkscape:snap-intersection-paths="false" inkscape:object-nodes="true" inkscape:snap-global="true" inkscape:zoom="1.8973437" inkscape:cx="76.018975" inkscape:cy="117.01159" inkscape:window-width="1920" inkscape:window-height="1017" inkscape:window-x="-8" inkscape:window-y="-8" inkscape:window-maximized="1" inkscape:current-layer="layer1" inkscape:snap-smooth-nodes="true" inkscape:snap-object-midpoints="true" showguides="true"/>
  <defs id="defs2"/>
  <g inkscape:label="Layer 1" inkscape:groupmode="layer" id="layer1">
    <path style="opacity:1;fill:#0087bd;fill-opacity:1;fill-rule:nonzero;stroke:none;stroke-width:15.11811066;stroke-linecap:round;stroke-linejoin:miter;stroke-miterlimit:4;stroke-dasharray:none;stroke-dashoffset:0;stroke-opacity:1;paint-order:normal" d="m 109.10938,76.970703 c -0.56565,-0.01418 -1.14418,0.06727 -1.71485,0.257813 -6.19136,3.726967 -12.073923,7.98532 -18.140624,11.925781 -4.189281,2.901127 -8.57725,5.546421 -12.603515,8.666015 -2.421965,2.478448 -1.405144,6.958638 1.798828,8.218748 10.201809,5.2524 20.475848,10.36457 30.769531,15.4336 3.15662,1.39511 7.04267,-1.1192 6.99023,-4.58008 -0.62772,-11.80579 -1.34051,-23.614928 -2.14062,-35.412111 -0.2969,-2.587472 -2.50786,-4.448329 -4.95898,-4.509766 z m -7.75744,17.567396 c 5.20974,0.265135 6.25387,9.451311 1.04128,10.792941 -3.290405,0.97832 -7.330761,-0.31694 -7.696632,-4.17063 -0.778374,-3.256096 2.074959,-7.05444 5.558992,-6.550687 0.38374,-0.0666 0.74906,-0.0893 1.09636,-0.07162 z" id="path1455" inkscape:connector-curvature="0" sodipodi:nodetypes="scccccccsccccc"/>
    <path style="opacity:1;fill:#0087bd;fill-opacity:1;fill-rule:nonzero;stroke:none;stroke-width:15.11811066;stroke-linecap:round;stroke-linejoin:miter;stroke-miterlimit:4;stroke-dasharray:none;stroke-dashoffset:0;stroke-opacity:1;paint-order:normal" d="M 128.4375 28.964844 C 128.07214 28.960883 127.70652 28.96849 127.33984 28.984375 C 117.95413 28.862507 108.8512 35.325865 105.88672 44.21875 C 105.04806 47.345024 107.54498 50.352143 110.58594 50.847656 C 115.04529 52.477839 119.09061 55.13343 123.86914 55.90625 C 128.50716 56.980486 132.99181 58.636989 137.38477 60.455078 C 138.58687 63.044292 140.53812 66.196509 143.85156 65.777344 C 147.41782 65.681514 148.94778 61.917218 149.79883 58.994141 C 152.54344 50.614443 149.81435 40.852242 143.2168 35.023438 C 139.21347 31.291826 133.91792 29.02425 128.4375 28.964844 z M 71.888672 28.990234 C 59.726547 28.776523 48.94483 39.942124 49.138672 52.025391 C 49.197632 57.633282 51.176488 63.415904 55.046875 67.529297 C 57.495179 69.678647 61.491134 68.72207 63.060547 65.966797 C 65.595867 61.51564 70.395711 59.061833 75.226562 57.935547 C 80.784304 56.412105 86.852345 56.677538 91.972656 53.71875 C 94.906273 52.62404 96.673101 49.124174 95.267578 46.207031 C 93.001665 41.237946 90.352718 36.059829 85.578125 33.056641 C 81.579672 30.285197 76.757837 28.828062 71.888672 28.990234 z M 43.880859 76.693359 C 35.17484 77.085043 26.92411 82.616687 23.5 90.671875 C 19.280366 99.810922 21.98387 111.52002 29.886719 117.79102 C 34.974229 122.14553 42.059367 124.21766 48.650391 122.88281 C 51.835711 121.98908 53.184876 118.22709 52.111328 115.2793 C 51.430382 110.2078 51.437009 104.97653 49.480469 100.16211 C 48.309441 95.890882 47.682177 91.657978 47.082031 87.236328 C 48.693628 85.141661 50.489919 82.462443 49.189453 79.751953 C 48.28064 77.699024 46.08739 76.545582 43.880859 76.693359 z M 154.8418 76.705078 C 151.8988 76.670818 148.15601 77.23842 147.2207 80.511719 C 146.22054 84.156236 149.69579 87.002296 149.71094 90.597656 C 150.30456 97.393479 147.52865 103.83595 145.08594 110.00781 C 144.43813 113.2345 143.24694 116.80686 144.64453 119.98633 C 146.40988 123.19823 150.45444 122.97388 153.60938 123.24414 C 162.63942 123.87658 171.72171 118.80318 175.8418 110.72461 C 178.08145 106.84694 178.63541 102.3218 178.3418 97.921875 C 177.76524 87.981897 169.74164 79.225532 160.05664 77.257812 C 158.34561 76.88274 156.59499 76.674764 154.8418 76.705078 z M 60.201172 128.67969 C 59.763797 128.70265 59.322336 128.77024 58.878906 128.77539 C 55.567953 129.91623 54.231969 133.48732 52.357422 136.15625 C 46.829341 145.10003 48.624184 157.85689 56.617188 164.75781 C 62.808552 170.90742 72.641849 172.82535 80.703125 169.5 C 86.617299 167.31333 91.274261 162.53764 93.84375 156.83789 C 95.689995 154.09972 94.358438 149.94453 91.083984 149.10352 C 88.621605 148.74918 86.011918 148.96133 83.662109 147.89648 C 77.893999 145.76091 74.099178 140.55636 70.353516 135.96094 C 67.998467 132.98597 65.005328 130.33173 61.5 128.8457 C 61.071462 128.67689 60.638547 128.65672 60.201172 128.67969 z M 142.00781 131.6875 C 141.83644 131.6846 141.66286 131.69021 141.48633 131.70508 C 138.34096 131.98578 136.4452 134.86332 133.85352 136.32812 C 128.01729 140.093 123.90622 145.83998 118.35156 149.96289 C 117.0309 150.76096 116.02371 152.58678 114.24023 152.10938 C 111.34412 151.63864 107.82315 153.00803 107.26562 156.17773 C 106.59118 159.60558 109.44438 162.34055 111.56445 164.62891 C 117.52501 170.3214 126.57785 172.66524 134.46289 170.0332 C 140.5143 168.29623 145.50033 163.66759 148.43555 158.19141 C 151.92605 151.24869 151.57353 142.63165 147.56836 135.97656 C 146.55657 133.71832 144.57846 131.73105 142.00781 131.6875 z " id="path1438"/>
    <path style="display:inline;fill:#000000;fill-opacity:1;fill-rule:evenodd;stroke:none;stroke-width:0.19499999" d="m 100.00184,11.482377 -6.107204,12.098177 h -8.686627 l -8.116499,-9.08332 -1.957628,9.378533 A 38.210019,38.210016 0 0 0 46.507495,40.400286 l -9.09808,-2.992716 3.806396,11.568639 -4.343314,7.522384 -13.529958,-0.758327 7.42275,11.338005 -4.343315,7.522383 -11.922895,2.487166 7.142298,6.38397 a 38.21002,38.210016 0 0 0 -0.0019,33.05457 l -7.142297,6.38213 11.922895,2.48716 4.345159,7.52424 -7.424595,11.338 13.529958,-0.76018 4.34516,7.52239 -3.808241,11.57049 9.099924,-2.99272 a 38.210021,38.210017 0 0 0 28.624542,16.52636 l 1.957628,9.37669 8.116499,-9.08148 h 8.684783 l 6.107208,12.09818 6.10721,-12.09818 h 8.68662 l 8.11651,9.08333 1.95763,-9.37854 a 38.210015,38.210012 0 0 0 28.62642,-16.52452 l 9.09809,2.99272 -3.8064,-11.57048 4.34331,-7.52238 13.53181,0.76016 -7.4246,-11.338 4.34332,-7.52238 11.92289,-2.48902 -6.99838,-6.25297 a 38.210013,38.210009 0 0 0 0.002,-33.31288 l 6.99839,-6.25297 -11.9229,-2.489011 -4.34331,-7.522383 7.42275,-11.338005 -13.52997,0.758327 -4.34516,-7.520538 3.80824,-11.570485 -9.09808,2.992716 A 38.210015,38.210012 0 0 0 124.86801,23.875767 l -1.95578,-9.376688 -8.1165,9.081475 h -8.68667 z M 72.320138,33.715568 c 6.377774,-0.01118 12.584611,3.29275 16.002362,9.212476 0.751323,1.301326 1.72894,3.368086 2.81928,5.937461 -1.643487,0.675734 -3.388053,1.444644 -5.278769,2.345094 -7.036044,0.722663 -12.113062,1.826247 -15.961771,3.30638 -3.938228,1.514559 -6.619078,3.482934 -8.522415,5.644094 -1.256291,1.42646 -2.159674,2.827147 -2.970577,4.201243 -0.822263,-1.165697 -1.534463,-2.220704 -1.990839,-3.011168 -5.086891,-8.810753 -2.068836,-20.07813 6.741916,-25.16502 2.891028,-1.669135 6.046086,-2.465176 9.160813,-2.47056 z m 55.808082,0.0056 c 2.96941,0.07712 5.96279,0.875371 8.71614,2.465025 8.81075,5.08689 11.82881,16.354267 6.74192,25.16502 -0.0587,0.101659 -0.14868,0.236347 -0.21403,0.34503 -1.04139,-2.279224 -1.92257,-4.088731 -1.92257,-4.088731 l -0.43729,-0.869032 -0.89485,-0.385622 c 0,0 -2.49798,-1.086306 -5.65701,-2.276826 -3.15904,-1.190522 -6.91274,-2.50068 -9.94866,-2.998252 -5.46153,-0.895107 -8.17656,-3.769981 -13.60008,-5.217881 -0.20765,-0.05543 -0.42436,-0.102348 -0.6384,-0.151296 0.51811,-1.102373 1.00171,-2.080353 1.40595,-2.780532 3.49725,-6.057394 9.91618,-9.376615 16.44888,-9.206941 z m -21.84573,16.851098 c 1.22874,0.02487 2.27487,0.199281 3.24918,0.459424 3.89726,1.040442 7.24765,4.205245 14.11301,5.330432 2.16694,0.35515 5.89844,1.587713 8.92649,2.72887 2.51521,0.947889 3.8718,1.535415 4.50198,1.804487 0.30163,0.609446 0.97114,1.936926 2.05911,4.402356 1.30684,2.961383 2.74201,6.626739 3.20675,8.765966 1.50647,6.934442 5.08156,10.214943 6.39688,14.116693 0.65767,1.950869 0.96113,4.186097 0.4133,7.658919 -0.28113,1.782187 -0.80607,3.886242 -1.63659,6.371057 -0.36498,-1.62414 -0.79211,-3.215106 -1.29155,-4.522289 -1.61228,-4.219797 -0.52135,-7.173715 -1.66425,-11.675654 -1.10465,-4.351187 -4.48382,-8.973505 -13.87499,-15.506036 -7.12963,-10.340296 -12.35158,-13.98115 -17.24595,-15.125951 -4.89438,-1.144801 -8.39055,-0.03631 -13.01703,-1.623669 -1.253436,-0.430054 -2.75546,-0.784398 -4.297185,-1.077525 2.240155,-0.802654 4.163785,-1.343914 5.813845,-1.669796 1.70682,-0.337092 3.11826,-0.462161 4.347,-0.437284 z m -18.967402,5.708672 c 1.130077,0.108363 8.407103,0.770523 11.59816,1.865374 5.825762,1.998818 9.904242,0.92301 13.459852,1.754669 2.08762,0.488298 4.37006,1.566688 7.27698,4.3673 -6.94659,-2.54522 -14.55807,-3.204302 -21.908456,-1.531452 -16.650163,3.78935 -29.754459,20.140539 -26.083869,37.512281 l -2.584954,1.72515 4.110833,2.06465 36.789016,18.47846 c -11.213574,8.57256 -28.003241,5.62122 -37.587935,-4.72156 -6.886014,-7.43066 -9.958071,-18.012873 -8.736445,-28.09132 0.862397,-11.765916 2.917504,-15.748513 5.199431,-17.97106 2.281925,-2.222546 5.972658,-3.160077 9.642378,-7.67737 2.138128,-2.631961 7.92195,-7.074924 8.825009,-7.77516 z m -9.155278,1.468683 c -1.224023,1.128027 -2.389063,2.292307 -3.271323,3.378337 -2.848314,3.506172 -5.951558,4.036232 -9.278898,7.276989 -3.215393,3.131719 -5.52722,8.376021 -6.489141,19.771857 -5.390142,11.344585 -5.930072,17.687836 -4.474314,22.498886 1.455761,4.81105 4.16124,7.27941 5.099796,12.07973 0.254535,1.30183 0.698625,2.78191 1.215907,4.26582 -1.814777,-1.5392 -3.243242,-2.93497 -4.350695,-4.20125 -2.29068,-2.6192 -3.254927,-4.6411 -3.77872,-6.58877 -1.047581,-3.89534 0.01174,-8.37793 -2.446573,-14.88609 -0.775906,-2.054217 -1.573947,-5.906981 -2.099699,-9.099929 -0.436962,-2.653712 -0.602633,-4.123839 -0.684524,-4.802739 0.378073,-0.567544 1.190645,-1.810302 2.780532,-3.983523 1.911216,-2.612443 4.365174,-5.68312 5.985434,-7.155213 5.252166,-4.771866 6.310306,-9.511915 9.031658,-12.601883 1.360673,-1.544985 3.144943,-2.920813 6.426407,-4.182792 1.683878,-0.647586 3.767458,-1.246174 6.334153,-1.76943 z m 28.10792,8.710613 c 7.53207,0.05915 15.02334,2.645058 21.11138,7.217946 9.75839,6.629816 11.89741,10.388971 12.68123,13.476451 0.78382,3.087478 -0.25245,6.751869 1.82478,12.188586 1.21056,3.168393 2.16662,10.402473 2.3211,11.531743 -0.66057,0.92686 -4.87225,6.8917 -7.41536,9.1073 -4.64391,4.04585 -5.75131,8.12107 -8.24935,10.78449 -1.46215,1.55895 -3.52727,2.98962 -7.38215,4.10345 5.79347,-4.76609 10.26145,-11.10072 12.51885,-18.40281 5.04237,-16.31078 -2.56358,-35.832673 -19.43605,-41.344514 L 114.05211,71.971418 75.888518,97.427961 C 74.08734,83.439813 85.031632,70.390134 98.773023,67.262778 c 2.469537,-0.562033 4.984017,-0.822323 7.494707,-0.802608 z m 8.27702,13.729227 c 13.02453,5.428523 18.85986,21.438149 14.69604,34.907039 -2.99211,9.67878 -10.51957,17.58401 -19.85857,21.56527 -10.620776,5.1361 -15.218976,5.31711 -18.284722,4.45217 -3.065745,-0.86493 -5.722056,-3.59548 -11.469006,-4.5149 -3.349896,-0.53594 -10.09709,-3.3249 -11.149807,-3.75474 -0.47438,-1.0399 -3.530296,-7.66927 -4.177256,-10.97822 -1.181852,-6.04465 -4.154787,-9.03854 -5.212347,-12.5336 -0.627868,-2.07502 -0.831521,-4.62253 0.178973,-8.61467 1.206525,7.47052 4.472521,14.58054 9.712491,20.23497 11.604436,12.52226 32.310384,15.69586 45.519924,3.8396 l 2.80636,1.40964 z M 44.738065,81.57874 c 0.116961,0 0.277761,0.01069 0.404072,0.01291 -1.452475,2.041437 -2.577574,3.710452 -2.577574,3.710452 l -0.535072,0.813679 0.112549,0.963132 c 0,0 0.311311,2.707874 0.859806,6.038941 0.548496,3.331063 1.287559,7.236736 2.374616,10.114726 1.955571,5.17736 0.826367,8.96705 2.284207,14.38791 0.05586,0.20773 0.1235,0.41924 0.188198,0.62918 -1.213835,0.10217 -2.302236,0.17159 -3.110802,0.17159 -10.173781,0 -18.42126,-8.24748 -18.42126,-18.421265 0,-10.173783 8.247479,-18.42126 18.42126,-18.42126 z m 110.525715,0 c 10.17378,0 18.4231,8.247477 18.4231,18.42126 0,10.17378 -8.24932,18.42126 -18.4231,18.42126 -1.50303,0 -3.78065,-0.18542 -6.55188,-0.52585 0.23553,-1.75766 0.44173,-3.64837 0.60704,-5.73081 2.896,-6.4617 4.47526,-11.41702 5.11824,-15.493122 0.65747,-4.167965 0.29447,-7.470676 -0.62548,-10.199591 -0.60749,-1.802079 -1.36711,-3.285847 -2.15135,-4.675428 1.42089,-0.129366 2.69059,-0.217719 3.60343,-0.217719 z m -46.00149,0.02214 2.14029,35.64137 -31.702129,-15.92486 z m -9.26045,11.491144 c -3.801524,0 -6.907968,3.106441 -6.907968,6.907973 0,3.801533 3.106444,6.907973 6.907968,6.907973 3.80154,0 6.90797,-3.10644 6.90797,-6.907973 0,-3.801532 -3.10643,-6.907973 -6.90797,-6.907973 z m 0,2.302658 c 2.55709,0 4.60532,2.048232 4.60532,4.605315 0,2.557083 -2.04823,4.605313 -4.60532,4.605313 -2.557075,0 -4.60531,-2.04823 -4.60531,-4.605313 0,-2.557083 2.048235,-4.605315 4.60531,-4.605315 z m 42.92206,24.901178 c -0.42497,2.34366 -0.91813,4.28174 -1.46131,5.87472 -1.12294,3.29339 -2.39262,5.13734 -3.81746,6.56479 -2.84968,2.85492 -7.26854,4.17453 -11.67566,9.55751 -1.39104,1.69905 -4.3208,4.31558 -6.82309,6.36737 -2.08093,1.70629 -3.27716,2.58691 -3.82301,2.9964 -0.6816,-0.0437 -2.16196,-0.12314 -4.83779,-0.4133 -3.21805,-0.34893 -7.10349,-0.94361 -9.18849,-1.61075 -6.758652,-2.16257 -11.390027,-0.70857 -15.426698,-1.52034 -2.018336,-0.40589 -4.106064,-1.25607 -6.839705,-3.4669 -1.404308,-1.13574 -2.966371,-2.64446 -4.704949,-4.60901 1.591989,0.49701 3.186158,0.92436 4.570258,1.14579 4.460591,0.71362 6.471066,3.13748 10.941314,4.39867 4.319566,1.21867 10.017229,0.59986 20.36597,-4.26397 12.51847,-1.00442 18.28736,-3.70871 21.7258,-7.37478 3.43861,-3.66626 4.22192,-7.24862 7.90985,-10.4616 0.9999,-0.87113 2.0592,-1.99548 3.08497,-3.1846 z m -82.777588,12.94322 c 1.403509,1.0822 2.938988,2.20381 4.658823,3.38756 4.148708,5.74038 7.647414,9.58775 10.856439,12.18306 3.280762,2.65332 6.328304,3.98773 9.151588,4.55549 1.863141,0.37469 3.527199,0.45843 5.121937,0.47419 -0.598124,1.29496 -1.156293,2.44038 -1.612599,3.23073 -5.086886,8.81074 -16.352423,11.8288 -25.163175,6.74192 -8.810752,-5.0869 -11.828807,-16.35242 -6.741916,-25.16318 0.751233,-1.30117 2.049537,-3.18119 3.728903,-5.40977 z m 81.736968,2.80083 c 0.69513,0.99967 1.29884,1.90891 1.703,2.60894 5.08689,8.81076 2.06883,20.07628 -6.74192,25.16318 -8.81075,5.08688 -20.07812,2.06882 -25.16502,-6.74192 -0.0584,-0.10109 -0.12895,-0.24585 -0.19004,-0.3561 2.49339,0.23636 4.50015,0.37455 4.50015,0.37455 l 0.97235,0.0554 0.78231,-0.57566 c 0,0 2.18851,-1.62527 4.79905,-3.76581 2.61054,-2.14054 5.62333,-4.7342 7.57221,-7.11462 3.50594,-4.28226 7.35387,-5.19707 11.31955,-9.17003 0.15156,-0.15184 0.2993,-0.31732 0.44836,-0.47788 z" id="pThornyThaum" inkscape:connector-curvature="0"/>
    <g id="gRoseFloret" transform="matrix(2.4375,0,0,2.4375,-21.873469,-21.87555)" style="display:inline">
      <g id="gOuterPetals" style="display:inline"/>
      <g id="gInnerPetals" style="display:inline"/>
      <g id="gSpirals" style="display:inline"/>
    </g>
  </g>
  <metadata id="metadataOfRose">
    <rdf:RDF>
      <cc:Work rdf:about="">
        <dc:description>Inspired by the Cernunnos and Thaumiel icons on the SCP Wiki:

Cernunnos Icon created by ??????:
https://scp-wiki.wdfiles.com/local--files/component%3Aanomaly-class-bar/cernunnos-icon.svg

Thaumiel Icon created by ??????:
https://scp-wiki.wdfiles.com/local--files/component%3Aanomaly-class-bar/thaumiel-icon.svg

How to recreate the Thaumiel negative petals:
1. Create Circle: Cx: 50, Cy: 20, R: 10
2. Object to Path
3. Position lower most node to X: 50, Y: 50
4. Add new nodes between three nodes
5. Delete two lowermost segments
6. Reposition rotation center to X: 50, Y: 50
7. Ctrl+Rotate and Stamp (Spacebar) around center
8. Duplicate (Ctrl+D) gOuterPetals
9. Pop the duplicate out of its group (gRoseFloret)
10. Path Union this with the stamped petals
11. Delete remnant nodes in the middle
</dc:description>
        <dc:creator>
          <cc:Agent>
            <dc:title>ChaosMageX</dc:title>
          </cc:Agent>
        </dc:creator>
        <dc:rights>
          <cc:Agent>
            <dc:title>CC-BY-SA 3.0 : Creative Commons Share-Alike License Version 3.0</dc:title>
          </cc:Agent>
        </dc:rights>
        <dc:date>June 24th, 2021</dc:date>
        <dc:title>Flor'Galana Esoteric Containment Class</dc:title>
        <cc:license rdf:resource="http://creativecommons.org/licenses/by-sa/4.0/"/>
        <dc:format>image/svg+xml</dc:format>
        <dc:type rdf:resource="http://purl.org/dc/dcmitype/StillImage"/>
      </cc:Work>
      <cc:License rdf:about="http://creativecommons.org/licenses/by-sa/4.0/">
        <cc:permits rdf:resource="http://creativecommons.org/ns#Reproduction"/>
        <cc:permits rdf:resource="http://creativecommons.org/ns#Distribution"/>
        <cc:requires rdf:resource="http://creativecommons.org/ns#Notice"/>
        <cc:requires rdf:resource="http://creativecommons.org/ns#Attribution"/>
        <cc:permits rdf:resource="http://creativecommons.org/ns#DerivativeWorks"/>
        <cc:requires rdf:resource="http://creativecommons.org/ns#ShareAlike"/>
      </cc:License>
    </rdf:RDF>
  </metadata>
</svg>