<?xml version="1.0" encoding="windows-1252" standalone="no"?>
<!-- Generator: Adobe Illustrator 24.1.1, SVG Export Plug-In . SVG Version: 6.00 Build 0)  -->
<svg xmlns:dc="http://purl.org/dc/elements/1.1/" xmlns:cc="http://creativecommons.org/ns#" xmlns:rdf="http://www.w3.org/1999/02/22-rdf-syntax-ns#" xmlns:svg="http://www.w3.org/2000/svg" xmlns="http://www.w3.org/2000/svg" xmlns:sodipodi="http://sodipodi.sourceforge.net/DTD/sodipodi-0.dtd" xmlns:inkscape="http://www.inkscape.org/namespaces/inkscape" version="1.1" x="0px" y="0px" viewBox="0 0 504 504" style="enable-background:new 0 0 504 504;" xml:space="preserve" id="svg25" sodipodi:docname="godel-icon-2.svg" inkscape:version="0.92.4 (5da689c313, 2019-01-14)"><metadata id="metadata31"><rdf:RDF><cc:Work rdf:about=""><dc:format>image/svg+xml</dc:format><dc:type rdf:resource="http://purl.org/dc/dcmitype/StillImage"/><dc:title/></cc:Work></rdf:RDF></metadata><defs id="defs29">
	
	
	

	
	
	
</defs><sodipodi:namedview pagecolor="#ffffff" bordercolor="#666666" borderopacity="1" objecttolerance="10" gridtolerance="10" guidetolerance="10" inkscape:pageopacity="0" inkscape:pageshadow="2" inkscape:window-width="1920" inkscape:window-height="1017" id="namedview27" showgrid="false" inkscape:zoom="0.93650794" inkscape:cx="28.949034" inkscape:cy="355.98671" inkscape:window-x="-8" inkscape:window-y="-8" inkscape:window-maximized="1" inkscape:current-layer="svg25"/>
<style type="text/css" id="style2">
	.st0{fill:#FFFFFF;stroke:#000000;stroke-width:20;stroke-linecap:round;stroke-linejoin:round;stroke-miterlimit:10;}
	.st1{fill:#FFFFFF;stroke:#000000;stroke-width:20;stroke-miterlimit:10;}
	.st2{display:none;fill:none;stroke:#000000;stroke-width:20;stroke-linecap:round;stroke-linejoin:round;stroke-miterlimit:10;}
</style>
<path style="opacity:1;fill:#009f6b;fill-opacity:1;fill-rule:nonzero;stroke:none;stroke-width:15.11811066;stroke-linecap:round;stroke-linejoin:miter;stroke-miterlimit:4;stroke-dasharray:none;stroke-dashoffset:0;stroke-opacity:1;paint-order:normal" d="m 248.42556,36.516623 c -11.65641,0.227513 -22.55033,5.05468 -32.84757,10.164737 -20.53304,9.821612 -41.31414,19.224135 -61.3263,30.06891 -4.95788,3.234348 -2.08825,11.575323 3.75921,11.308329 35.88578,1.036201 71.80559,0.415128 107.70558,0.602512 27.52716,-0.163868 55.07604,0.229395 82.58908,-0.611963 5.73585,-0.570735 7.1652,-9.131172 1.9115,-11.544609 -25.30172,-12.516727 -50.70168,-24.894404 -76.44109,-36.476805 -7.36284,-2.585211 -15.22453,-3.612782 -23.00889,-3.492209 -0.78392,-0.02698 -1.56443,-0.03407 -2.34152,-0.0189 z M 123.6103,91.419064 c -0.5031,-0.02038 -1.01274,0.01127 -1.52235,0.101847 -17.59163,7.459907 -35.231796,17.750599 -45.34596,34.595749 -2.873595,4.3006 -7.406423,10.89255 -2.208468,15.29043 6.849858,4.84972 15.012058,7.89244 22.459906,11.85444 4.484012,2.28793 10.563622,5.67727 14.703472,0.81746 5.13,-10.98392 8.09494,-22.94822 12.24038,-34.35455 1.93716,-7.23937 5.65049,-14.26304 6.26357,-21.714819 0.0878,-3.703887 -3.06896,-6.447883 -6.59055,-6.590557 z m 257.00828,-0.005 c -0.53109,-0.0069 -1.069,0.03261 -1.61369,0.126833 -5.74437,1.389249 -6.47106,8.251161 -4.0855,12.809682 5.45356,17.39917 10.5664,34.95946 16.82504,52.0726 2.97302,5.63615 10.18001,3.86747 14.29116,0.59636 8.07979,-4.87162 16.75896,-9.01541 24.36728,-14.52592 5.33769,-5.0755 -0.2799,-11.76481 -3.03848,-16.56328 -8.85507,-13.46256 -21.53831,-24.21396 -36.28109,-30.735699 -3.34454,-1.43143 -6.74703,-3.732399 -10.46472,-3.780576 z M 72.485515,170.27872 c -5.513235,0.63471 -10.563347,17.31737 -11.840011,21.38649 -6.925404,30.09403 -15.100781,63.57419 -21.249757,93.8352 -0.811496,10.01035 4.784582,21.77764 9.906661,30.53686 2.641609,4.2518 13.17922,-0.0775 13.216067,-5.04443 -0.490723,-5.07996 5.426318,-5.98473 7.050948,-10.84138 9.67676,-32.45404 17.480587,-68.28692 27.50073,-100.69125 0.984999,-5.50387 -0.763053,-14.68267 -4.293942,-17.29013 -4.117794,-2.14007 -15.567254,-11.3696 -20.290696,-11.89136 z m 361.424965,4.19653 c -0.25713,-0.0124 0.60714,-4.16001 -0.80469,0.0156 -6.21001,1.41778 -13.06363,6.73779 -18.6962,9.54216 -3.7376,1.3413 -9.27471,14.98067 -7.50432,18.41463 10.11743,33.20905 18.95178,65.25089 28.81827,98.52816 1.25435,4.80917 5.44024,23.3255 10.02785,26.78778 3.99568,2.52098 14.99672,-15.34308 15.8833,-19.22813 3.59518,-9.54299 7.10356,-23.03121 4.73918,-33.08073 -5.92979,-29.77059 -15.04854,-54.73912 -21.8095,-84.3291 -0.47099,-3.3929 -6.79694,-16.46403 -10.65389,-16.6504 z m -6.54597,154.37468 c -0.25888,0.003 -0.52363,0.0273 -0.79297,0.0742 -5.44524,2.04837 -19.49558,12.51804 -24.38982,15.59701 -42.00803,30.58945 -87.47498,59.66355 -129.08877,90.78787 -3.93085,2.78531 5.26873,18.21415 10.00904,18.24682 14.22167,0.60801 31.43278,-1.29999 45.65715,-1.42069 13.56691,-3.01216 34.56427,-15.66588 42.89012,-27.02693 21.85721,-26.96166 40.70759,-53.55572 61.80598,-81.11466 2.26796,-3.29281 -2.20759,-15.18492 -6.09073,-15.14364 z m -347.936213,1.99918 c -2.405867,0.9335 -2.811666,4.41447 -2.95008,4.43592 -4.636044,0.57084 -8.88127,8.12094 -5.608315,11.07107 22.011345,27.97756 47.629898,59.96982 70.164358,87.52572 10.58444,11.0762 23.70277,20.6208 39.12809,20.06988 11.55305,-0.026 31.44624,0.36611 42.96292,-0.56187 4.82905,-0.80282 5.54046,-19.45775 1.14062,-21.42803 -45.92004,-33.25396 -91.58581,-63.53181 -137.746094,-96.4483 -0.942285,-0.16073 -4.932626,-5.59291 -7.091499,-4.66439 z" id="path854" inkscape:connector-curvature="0" sodipodi:nodetypes="ccccccccccscccccccscccccccccccccccccccccccccccccccccccccccccccccc"/><path style="fill:none;stroke:#000000;stroke-width:20;stroke-linecap:round;stroke-linejoin:round;stroke-miterlimit:10" inkscape:connector-curvature="0" id="path4" d="M 225.4,41.7 104.2,100 C 87.4,108.1 75.1,123.4 71,141.7 L 41,272.8 c -4.2,18.2 0.2,37.3 11.9,51.9 L 136.7,430 c 11.7,14.6 29.3,23.1 48,23.1 h 134.5 c 18.7,0 36.4,-8.5 48,-23.1 l 83.9,-105.2 c 11.7,-14.6 16,-33.7 11.9,-51.9 L 433.1,141.7 C 428.9,123.5 416.7,108.2 399.9,100 L 278.6,41.7 c -16.8,-8.2 -36.4,-8.2 -53.2,0 z" class="st0"/><path style="fill:#ffffff;stroke:#000000;stroke-width:20;stroke-miterlimit:10" inkscape:connector-curvature="0" id="path6" d="M 269,440.8 426.2,326.6 c 10.2,-7.4 14.4,-20.4 10.5,-32.4 L 376.6,109.3 c -3.9,-11.9 -15,-20 -27.5,-20 H 154.8 c -12.5,0 -23.7,8.1 -27.5,20 L 67.2,294.1 c -3.9,11.9 0.4,25 10.5,32.4 L 235,440.8 c 10.1,7.3 23.9,7.3 34,0 z" class="st1"/><path style="opacity:1;fill:#009f6b;fill-opacity:1;fill-rule:nonzero;stroke:none;stroke-width:15.11811066;stroke-linecap:round;stroke-linejoin:miter;stroke-miterlimit:4;stroke-dasharray:none;stroke-dashoffset:0;stroke-opacity:1;paint-order:normal" d="M 251.66406 108.53906 C 247.99872 108.39785 245.20816 111.17024 243.81055 114.32031 C 229.04467 139.43762 214.31139 164.57841 199.96875 189.93945 C 198.42137 193.10017 200.58123 196.58079 203.69531 197.6582 C 206.5639 199.31688 210.25316 201.2543 213.24805 198.75586 C 224.18459 191.88806 237.02981 187.68618 249.83594 187.60352 C 267.5984 186.80011 285.42004 193.31201 298.89258 204.82227 C 302.8193 208.31733 310.37881 204.729 309.24609 199.31055 C 306.50701 193.20798 302.68574 187.61223 299.49023 181.72852 C 285.84355 158.25635 272.37117 134.67429 258.38281 111.40625 C 256.78926 109.41621 254.16083 108.48625 251.66406 108.53906 z M 330.36328 240.31836 C 330.11711 240.308 329.86583 240.31613 329.60938 240.34375 C 325.72622 240.84424 321.79532 244.30614 322.88867 248.5332 C 324.0556 258.84894 323.86411 269.48745 320.78125 279.48242 C 314.81915 300.57855 298.68669 318.45257 278.24805 326.42383 C 275.08866 327.44288 272.4572 330.24621 272.66602 333.72461 C 272.03776 337.39375 275.56042 340.40435 279.10547 339.76562 C 311.73224 339.70923 344.38325 339.8764 376.99414 339.67969 C 380.49981 339.01703 383.33634 335.66255 384.10352 332.22852 C 384.53342 328.15113 381.31902 324.90454 379.77344 321.38281 C 364.94579 295.04701 349.71001 268.94363 334.57617 242.7832 C 333.54591 241.36295 332.08645 240.39086 330.36328 240.31836 z M 173.50586 241.125 L 171.44531 241.46289 C 167.82392 243.55173 166.785 248.02838 164.44922 251.27539 C 149.72024 276.82438 134.94466 302.34859 120.40234 328.00391 C 118.12845 333.20506 122.86831 339.92129 128.57422 339.50977 C 152.3505 340.01697 176.1404 339.65 199.92188 339.76562 C 208.95283 339.65389 218.03399 339.98822 227.0332 339.5957 C 231.67596 338.95991 232.32317 332.77522 230.27148 329.38477 C 228.02831 326.31324 223.77865 326.13682 220.74414 324.13281 C 198.75664 313.80282 183.15783 291.2887 180.8125 267.16992 C 180.29861 260.57336 180.58384 253.92451 180.97656 247.35742 C 180.73156 243.70488 176.70988 241.75235 173.50586 241.125 z " id="path880"/><path style="fill:none;stroke:#000000;stroke-width:20;stroke-linecap:round;stroke-linejoin:round;stroke-miterlimit:10" inkscape:connector-curvature="0" id="path8" d="M 239.8,110.3 116.5,323.9 c -5.4,9.4 1.4,21.1 12.2,21.1 h 246.6 c 10.8,0 17.6,-11.7 12.2,-21.1 L 264.2,110.3 c -5.4,-9.4 -19,-9.4 -24.4,0 z" class="st0"/>
<g id="Layer_2">
	<polygon class="st2" points="334.3,366.9 334.3,157.8 252,110.3 169.7,157.8 169.7,366.9 252,414.4  " id="polygon11"/>
	<g id="g15">
		<path d="M252,182.6c-42.3,0-76.5,34.4-76.5,76.8s34.3,76.8,76.5,76.8s76.5-34.4,76.5-76.8S294.3,182.6,252,182.6z M192.8,288.7    c-7.8,0.6-13.1-21.2-8.1-43.7c8.8-39.5,65.7-64.5,76-49.5C272.7,212.8,214.7,287,192.8,288.7z" id="path13"/>
	</g>
</g>
<path inkscape:connector-curvature="0" id="path18" d="m 265.6,458.9 h -27.2 c -6.6,0 -12,-5.4 -12,-12 v -114 c 0,-6.6 5.4,-12 12,-12 h 27.2 c 6.6,0 12,5.4 12,12 v 114 c 0,6.6 -5.4,12 -12,12 z"/><path inkscape:connector-curvature="0" id="path20" d="m 436.6,143 3.1,23.2 c 3.3,5.7 1.3,13.1 -4.4,16.4 l -119.7,70.8 c -5.7,3.3 -13.1,1.3 -16.4,-4.4 l -13.6,-23.5 c -3.3,-5.7 -1.3,-13.1 4.4,-16.4 l 135.4,-78.2 c 5.7,-3.3 7.9,6.4 11.2,12.1 z"/><path inkscape:connector-curvature="0" id="path22" d="m 66.3,141.5 -3.1,23.2 c -3.3,5.7 -1.3,13.1 4.4,16.4 l 111.9,68.4 c 1.4,1.2 4.5,-11.6 7.8,-17.3 l 14,-23.1 c 3.3,-5.7 20.1,-7.4 14.4,-10.7 l -138.2,-69 c -5.7,-3.3 -7.9,6.4 -11.2,12.1 z"/>
</svg>